Karmilla-Regular.sfdir
StartChar: space
Encoding: 32 32 3
AltUni2: 0000a0.ffffffff.0 0000a0.ffffffff.0 0000a0.ffffffff.0 0000a0.ffffffff.0
Width: 238
Flags: W
LayerCount: 2
Back
SplineSet
374 -4 m 5
 374 340 l 5
 374 681 l 5
 374 -4 l 5
30 340 m 5
 374 340 l 5
 718 340 l 5
 30 340 l 5
30 684 m 5
 718 -4 l 5
 30 -4 l 5
 30 684 l 5
30 684 m 5
 718 684 l 5
 30 -4 l 5
 30 684 l 5
30 684 m 5
 718 684 l 5
 718 -4 l 5
 30 -4 l 5
 30 684 l 5
EndSplineSet
Fore
Validated: 1
EndChar
StartChar: exclam
Encoding: 33 33 11
Width: 278
Flags: W
LayerCount: 2
Fore
SplineSet
82 47.5 m 128,-1,1
 82 71 82 71 98.5 87.5 c 128,-1,2
 115 104 115 104 140.5 104 c 128,-1,3
 166 104 166 104 183.5 87.5 c 128,-1,4
 201 71 201 71 201 47.5 c 128,-1,5
 201 24 201 24 183.5 7.5 c 128,-1,6
 166 -9 166 -9 140.5 -9 c 128,-1,7
 115 -9 115 -9 98.5 7.5 c 128,-1,0
 82 24 82 24 82 47.5 c 128,-1,1
99 627 m 1,8,-1
 182 627 l 1,9,-1
 173 176 l 1,10,-1
 109 176 l 1,11,-1
 99 627 l 1,8,-1
EndSplineSet
Validated: 1
EndChar
StartChar: quotedbl
Encoding: 34 34 147
Width: 306
Flags: W
LayerCount: 2
Fore
SplineSet
28 681 m 1,0,-1
 110 681 l 1,1,-1
 99 461 l 1,2,-1
 39 461 l 1,3,-1
 28 681 l 1,0,-1
196 681 m 1,4,-1
 278 681 l 1,5,-1
 267 461 l 1,6,-1
 207 461 l 1,7,-1
 196 681 l 1,4,-1
EndSplineSet
Validated: 1
EndChar
StartChar: dollar
Encoding: 36 36 93
Width: 632
Flags: W
LayerCount: 2
Fore
SplineSet
69 189 m 1,0,-1
 146 189 l 1,1,2
 146 76 146 76 285 63 c 1,3,-1
 285 298 l 1,4,-1
 253 310 l 1,5,6
 170 336 170 336 127.5 372 c 128,-1,7
 85 408 85 408 85 475 c 128,-1,8
 85 542 85 542 135.5 586.5 c 128,-1,9
 186 631 186 631 285 638 c 1,10,-1
 285 713 l 1,11,-1
 347 713 l 1,12,-1
 347 637 l 1,13,14
 434 630 434 630 481 587 c 128,-1,15
 528 544 528 544 539 476 c 1,16,-1
 461 476 l 1,17,18
 444 556 444 556 347 568 c 1,19,-1
 347 353 l 1,20,-1
 417 330 l 2,21,22
 486 307 486 307 524.5 268.5 c 128,-1,23
 563 230 563 230 563 163.5 c 128,-1,24
 563 97 563 97 506 46.5 c 128,-1,25
 449 -4 449 -4 347 -10 c 1,26,-1
 347 -91 l 1,27,-1
 285 -91 l 1,28,-1
 285 -9 l 1,29,30
 190 -1 190 -1 129.5 50.5 c 128,-1,31
 69 102 69 102 69 189 c 1,0,-1
170 472.5 m 128,-1,33
 170 436 170 436 190 415.5 c 128,-1,34
 210 395 210 395 255 381 c 1,35,-1
 285 370 l 1,36,-1
 285 569 l 1,37,38
 228 563 228 563 199 536 c 128,-1,32
 170 509 170 509 170 472.5 c 128,-1,33
347 62 m 1,39,40
 410 67 410 67 442.5 98 c 128,-1,41
 475 129 475 129 475 167 c 0,42,43
 475 241 475 241 383 270 c 1,44,-1
 347 282 l 1,45,-1
 347 62 l 1,39,40
EndSplineSet
Validated: 1
EndChar
StartChar: ampersand
Encoding: 38 38 127
Width: 916
Flags: W
LayerCount: 2
Fore
SplineSet
89 168 m 128,-1,1
 89 242 89 242 136.5 279.5 c 128,-1,2
 184 317 184 317 276 332 c 1,3,-1
 262 345 l 1,4,5
 185 412 185 412 185 492 c 0,6,7
 185 555 185 555 237.5 597 c 128,-1,8
 290 639 290 639 376.5 639 c 128,-1,9
 463 639 463 639 514.5 597 c 128,-1,10
 566 555 566 555 566 495.5 c 128,-1,11
 566 436 566 436 527 393 c 128,-1,12
 488 350 488 350 400 312 c 1,13,-1
 558 173 l 1,14,15
 626 255 626 255 670 380 c 1,16,-1
 725 350 l 1,17,18
 680 213 680 213 610 128 c 1,19,-1
 653 91 l 2,20,21
 673 74 673 74 688.5 66 c 128,-1,22
 704 58 704 58 728.5 58 c 128,-1,23
 753 58 753 58 772.5 76.5 c 128,-1,24
 792 95 792 95 795 140 c 1,25,-1
 869 140 l 1,26,27
 865 68 865 68 831.5 28.5 c 128,-1,28
 798 -11 798 -11 734 -11 c 0,29,30
 695 -11 695 -11 662 5 c 128,-1,31
 629 21 629 21 590 56 c 1,32,-1
 564 78 l 1,33,34
 464 -11 464 -11 336 -11 c 0,35,36
 231 -11 231 -11 160 41.5 c 128,-1,0
 89 94 89 94 89 168 c 128,-1,1
175 176 m 128,-1,38
 175 128 175 128 216.5 93.5 c 128,-1,39
 258 59 258 59 344 59 c 128,-1,40
 430 59 430 59 511 125 c 1,41,-1
 325 288 l 1,42,43
 248 278 248 278 211.5 251 c 128,-1,37
 175 224 175 224 175 176 c 128,-1,38
271 485 m 128,-1,45
 271 453 271 453 284 428 c 128,-1,46
 297 403 297 403 327 377 c 1,47,-1
 354 352 l 1,48,49
 458 400 458 400 474 452 c 0,50,51
 480 469 480 469 480 488 c 0,52,53
 480 524 480 524 452.5 548 c 128,-1,54
 425 572 425 572 375.5 572 c 128,-1,55
 326 572 326 572 298.5 544.5 c 128,-1,44
 271 517 271 517 271 485 c 128,-1,45
EndSplineSet
Validated: 1
EndChar
StartChar: comma
Encoding: 44 44 4
Width: 210
Flags: W
LayerCount: 2
Fore
SplineSet
30 -80 m 1,0,1
 92 -50 92 -50 105 -5 c 1,2,3
 82 -3 82 -3 67 10 c 128,-1,4
 52 23 52 23 52 45 c 128,-1,5
 52 67 52 67 67.5 82 c 128,-1,6
 83 97 83 97 111.5 97 c 128,-1,7
 140 97 140 97 159 74.5 c 128,-1,8
 178 52 178 52 178 18 c 128,-1,9
 178 -16 178 -16 156 -51.5 c 128,-1,10
 134 -87 134 -87 89 -109 c 1,11,-1
 30 -80 l 1,0,1
EndSplineSet
Validated: 1
EndChar
StartChar: six
Encoding: 54 54 79
Width: 573
Flags: W
LayerCount: 2
Fore
SplineSet
51 314.5 m 128,-1,1
 51 461 51 461 121 550.5 c 128,-1,2
 191 640 191 640 312 640 c 0,3,4
 396 640 396 640 449 593 c 128,-1,5
 502 546 502 546 510 470 c 1,6,-1
 425 470 l 1,7,8
 408 568 408 568 318 568 c 128,-1,9
 228 568 228 568 179.5 494 c 128,-1,10
 131 420 131 420 131 292 c 0,11,12
 131 239 131 239 136 204 c 1,13,14
 142 296 142 296 192.5 337.5 c 128,-1,15
 243 379 243 379 322 379 c 128,-1,16
 401 379 401 379 458 323.5 c 128,-1,17
 515 268 515 268 515 181.5 c 128,-1,18
 515 95 515 95 456 41.5 c 128,-1,19
 397 -12 397 -12 301 -12 c 0,20,21
 189 -12 189 -12 120 78 c 128,-1,0
 51 168 51 168 51 314.5 c 128,-1,1
170 183 m 128,-1,23
 170 128 170 128 207 94.5 c 128,-1,24
 244 61 244 61 301 61 c 128,-1,25
 358 61 358 61 395.5 94 c 128,-1,26
 433 127 433 127 433 185 c 128,-1,27
 433 243 433 243 395.5 276 c 128,-1,28
 358 309 358 309 301.5 309 c 128,-1,29
 245 309 245 309 207.5 273.5 c 128,-1,22
 170 238 170 238 170 183 c 128,-1,23
EndSplineSet
Validated: 1
Substitution2: "'onum' Oldstyle Figures in Latin lookup 0 subtable" .notdef
EndChar
StartChar: eight
Encoding: 56 56 81
Width: 625
Flags: W
LayerCount: 2
Fore
SplineSet
65 168 m 0,0,1
 65 230 65 230 105.5 269 c 128,-1,2
 146 308 146 308 211 318 c 1,3,4
 86 375 86 375 86 473 c 0,5,6
 86 548 86 548 148 594 c 128,-1,7
 210 640 210 640 312.5 640 c 128,-1,8
 415 640 415 640 481 591 c 128,-1,9
 547 542 547 542 547 465 c 0,10,11
 547 413 547 413 512.5 372 c 128,-1,12
 478 331 478 331 411 321 c 1,13,-1
 428 315 l 1,14,15
 497 289 497 289 534 253.5 c 128,-1,16
 571 218 571 218 571 157 c 0,17,18
 571 81 571 81 503.5 35 c 128,-1,19
 436 -11 436 -11 321.5 -11 c 128,-1,20
 207 -11 207 -11 136 40 c 128,-1,21
 65 91 65 91 65 168 c 0,0,1
147 169 m 128,-1,23
 147 121 147 121 195 91 c 128,-1,24
 243 61 243 61 320.5 61 c 128,-1,25
 398 61 398 61 443.5 87 c 128,-1,26
 489 113 489 113 489 150 c 128,-1,27
 489 187 489 187 465 209.5 c 128,-1,28
 441 232 441 232 399 247 c 2,29,-1
 286 289 l 1,30,31
 223 282 223 282 185 249.5 c 128,-1,22
 147 217 147 217 147 169 c 128,-1,23
169 463 m 0,32,33
 169 436 169 436 191 416.5 c 128,-1,34
 213 397 213 397 254 381 c 2,35,-1
 327 353 l 1,36,37
 387 355 387 355 426 384.5 c 128,-1,38
 465 414 465 414 465 461.5 c 128,-1,39
 465 509 465 509 424 538.5 c 128,-1,40
 383 568 383 568 318 568 c 128,-1,41
 253 568 253 568 211 539.5 c 128,-1,42
 169 511 169 511 169 463 c 0,32,33
EndSplineSet
Validated: 1
Substitution2: "'onum' Oldstyle Figures in Latin lookup 0 subtable" .notdef
EndChar
StartChar: D
Encoding: 68 68 41
Width: 661
Flags: W
LayerCount: 2
Fore
SplineSet
100 0 m 1,0,-1
 100 629 l 1,1,-1
 285 629 l 2,2,3
 427 629 427 629 512.5 543.5 c 128,-1,4
 598 458 598 458 598 314.5 c 128,-1,5
 598 171 598 171 512.5 85.5 c 128,-1,6
 427 0 427 0 285 0 c 2,7,-1
 100 0 l 1,0,-1
179 69 m 1,8,-1
 285 69 l 2,9,10
 390 69 390 69 452 138.5 c 128,-1,11
 514 208 514 208 514 315 c 0,12,13
 514 422 514 422 451.5 490.5 c 128,-1,14
 389 559 389 559 285 559 c 2,15,-1
 179 559 l 1,16,-1
 179 69 l 1,8,-1
EndSplineSet
Validated: 1
EndChar
StartChar: M
Encoding: 77 77 50
Width: 848
Flags: W
LayerCount: 2
Fore
SplineSet
101 0 m 1,0,-1
 101 629 l 1,1,-1
 214 629 l 1,2,-1
 426 203 l 1,3,-1
 636 629 l 1,4,-1
 747 629 l 1,5,-1
 747 0 l 1,6,-1
 668 0 l 1,7,-1
 668 517 l 1,8,-1
 452 79 l 1,9,-1
 399 79 l 1,10,-1
 180 524 l 1,11,-1
 180 0 l 1,12,-1
 101 0 l 1,0,-1
EndSplineSet
Validated: 1
EndChar
StartChar: Q
Encoding: 81 81 54
Width: 652
Flags: W
LayerCount: 2
Fore
SplineSet
51 315 m 128,-1,1
 51 473 51 473 125.5 556.5 c 128,-1,2
 200 640 200 640 323 640 c 0,3,4
 445 640 445 640 520.5 556.5 c 128,-1,5
 596 473 596 473 596 314 c 0,6,7
 596 182 596 182 543 101.5 c 128,-1,8
 490 21 490 21 399 -2 c 1,9,-1
 430 -46 l 1,10,11
 459 -85 459 -85 499 -87 c 1,12,13
 542 -87 542 -87 596 -62 c 1,14,-1
 596 -148 l 1,15,16
 556 -167 556 -167 512 -167 c 0,17,18
 427 -167 427 -167 366 -78 c 1,19,-1
 319 -11 l 1,20,21
 198 -9 198 -9 124.5 74 c 128,-1,0
 51 157 51 157 51 315 c 128,-1,1
133 313 m 128,-1,23
 133 189 133 189 184 125 c 128,-1,24
 235 61 235 61 323 61 c 128,-1,25
 411 61 411 61 462.5 125 c 128,-1,26
 514 189 514 189 514 313 c 128,-1,27
 514 437 514 437 462.5 503 c 128,-1,28
 411 569 411 569 323 569 c 128,-1,29
 235 569 235 569 184 503 c 128,-1,22
 133 437 133 437 133 313 c 128,-1,23
EndSplineSet
Validated: 1
EndChar
StartChar: b
Encoding: 98 98 13
Width: 584
Flags: W
LayerCount: 2
Fore
SplineSet
101 0 m 1,0,-1
 101 681 l 1,1,-1
 180 681 l 1,2,-1
 180 407 l 1,3,4
 228 490 228 490 320 490 c 0,5,6
 411 490 411 490 473 421 c 0,7,8
 534 353 534 353 534 241 c 0,9,10
 534 128 534 128 472 58 c 0,11,12
 410 -11 410 -11 321 -11 c 0,13,14
 273 -11 273 -11 234.5 13 c 128,-1,15
 196 37 196 37 174 84 c 1,16,-1
 156 0 l 1,17,-1
 101 0 l 1,0,-1
180 204 m 2,18,19
 180 138 180 138 219.5 98.5 c 128,-1,20
 259 59 259 59 315 59 c 0,21,22
 372 59 372 59 412 108 c 0,23,24
 453 158 453 158 453 240 c 0,25,26
 453 323 453 323 413 371 c 0,27,28
 372 420 372 420 315 420 c 128,-1,29
 258 420 258 420 220 383 c 0,30,31
 182 347 182 347 180 282 c 1,32,-1
 180 204 l 2,18,19
EndSplineSet
Validated: 1
EndChar
StartChar: g
Encoding: 103 103 18
Width: 565
Flags: W
LayerCount: 2
Fore
SplineSet
28 -93 m 0,0,1
 28 -50 28 -50 53.5 -23 c 128,-1,2
 79 4 79 4 121 15 c 1,3,4
 61 44 61 44 61 104 c 0,5,6
 61 134 61 134 84.5 158 c 128,-1,7
 108 182 108 182 143 190 c 1,8,9
 89 238 89 238 89 316 c 128,-1,10
 89 394 89 394 144.5 442 c 128,-1,11
 200 490 200 490 276 490 c 128,-1,12
 352 490 352 490 405 454 c 1,13,14
 412 507 412 507 447.5 539 c 128,-1,15
 483 571 483 571 541 571 c 1,16,-1
 534 493 l 1,17,18
 446 493 446 493 442 419 c 1,19,20
 477 376 477 376 477 316 c 0,21,22
 477 239 477 239 421.5 189.5 c 128,-1,23
 366 140 366 140 283 140 c 0,24,25
 226 140 226 140 182 163 c 1,26,27
 162 159 162 159 146 144.5 c 128,-1,28
 130 130 130 130 130 105 c 0,29,30
 130 52 130 52 218 52 c 2,31,-1
 404 52 l 2,32,33
 471 52 471 52 510 23.5 c 128,-1,34
 549 -5 549 -5 549 -56 c 0,35,36
 549 -132 549 -132 472.5 -189 c 128,-1,37
 396 -246 396 -246 279 -246 c 128,-1,38
 162 -246 162 -246 95 -202.5 c 128,-1,39
 28 -159 28 -159 28 -93 c 0,0,1
106 -90 m 128,-1,41
 106 -128 106 -128 147.5 -155.5 c 128,-1,42
 189 -183 189 -183 273.5 -183 c 128,-1,43
 358 -183 358 -183 414.5 -146.5 c 128,-1,44
 471 -110 471 -110 471 -61 c 0,45,46
 471 -38 471 -38 454.5 -21.5 c 128,-1,47
 438 -5 438 -5 404 -5 c 2,48,-1
 211 -5 l 1,49,50
 160 -7 160 -7 133 -29.5 c 128,-1,40
 106 -52 106 -52 106 -90 c 128,-1,41
167 316 m 128,-1,52
 167 264 167 264 198.5 230.5 c 128,-1,53
 230 197 230 197 284 197 c 128,-1,54
 338 197 338 197 369 231 c 128,-1,55
 400 265 400 265 400 316.5 c 128,-1,56
 400 368 400 368 369 400.5 c 128,-1,57
 338 433 338 433 283.5 433 c 128,-1,58
 229 433 229 433 198 400.5 c 128,-1,51
 167 368 167 368 167 316 c 128,-1,52
EndSplineSet
Validated: 1
EndChar
StartChar: i
Encoding: 105 105 20
Width: 299
Flags: W
LayerCount: 2
Fore
SplineSet
94 640.5 m 128,-1,1
 94 663 94 663 107.5 676.5 c 128,-1,2
 121 690 121 690 145 690 c 128,-1,3
 169 690 169 690 183.5 676.5 c 128,-1,4
 198 663 198 663 198 640.5 c 128,-1,5
 198 618 198 618 183.5 604.5 c 128,-1,6
 169 591 169 591 145 591 c 128,-1,7
 121 591 121 591 107.5 604.5 c 128,-1,0
 94 618 94 618 94 640.5 c 128,-1,1
106 0 m 1,8,-1
 106 479 l 1,9,-1
 185 479 l 1,10,-1
 185 0 l 1,11,-1
 106 0 l 1,8,-1
EndSplineSet
Validated: 1
EndChar
StartChar: j
Encoding: 106 106 21
Width: 314
Flags: W
LayerCount: 2
Fore
SplineSet
-86 -209 m 1,0,-1
 -82 -140 l 1,1,2
 -19 -177 -19 -177 33 -177 c 0,3,4
 121 -177 121 -177 121 -67 c 2,5,-1
 121 480 l 1,6,-1
 200 480 l 1,7,-1
 200 -67 l 2,8,9
 200 -204 200 -204 110 -236 c 0,10,11
 82 -246 82 -246 48 -246 c 0,12,13
 -14 -246 -14 -246 -86 -209 c 1,0,-1
109 640.5 m 128,-1,15
 109 663 109 663 122.5 676.5 c 128,-1,16
 136 690 136 690 160 690 c 128,-1,17
 184 690 184 690 198.5 676.5 c 128,-1,18
 213 663 213 663 213 640.5 c 128,-1,19
 213 618 213 618 198.5 604.5 c 128,-1,20
 184 591 184 591 160 591 c 128,-1,21
 136 591 136 591 122.5 604.5 c 128,-1,14
 109 618 109 618 109 640.5 c 128,-1,15
EndSplineSet
Validated: 1
EndChar
StartChar: m
Encoding: 109 109 24
Width: 935
Flags: W
LayerCount: 2
Fore
SplineSet
100 0 m 1,0,-1
 100 478 l 1,1,-1
 168 478 l 1,2,-1
 177 386 l 1,3,4
 224 490 224 490 338 490 c 0,5,6
 400 490 400 490 442 459.5 c 128,-1,7
 484 429 484 429 503 375 c 1,8,9
 548 490 548 490 670 490 c 0,10,11
 756 490 756 490 803 434 c 128,-1,12
 850 378 850 378 850 281 c 2,13,-1
 850 0 l 1,14,-1
 772 0 l 1,15,-1
 772 281 l 2,16,17
 772 350 772 350 739.5 385 c 128,-1,18
 707 420 707 420 646 420 c 128,-1,19
 585 420 585 420 551.5 370 c 128,-1,20
 518 320 518 320 518 232 c 2,21,-1
 518 0 l 1,22,-1
 440 0 l 1,23,-1
 440 281 l 2,24,25
 440 350 440 350 407.5 385 c 128,-1,26
 375 420 375 420 315 420 c 128,-1,27
 255 420 255 420 218 371 c 128,-1,28
 181 322 181 322 179 235 c 1,29,-1
 179 0 l 1,30,-1
 100 0 l 1,0,-1
EndSplineSet
Validated: 1
EndChar
StartChar: p
Encoding: 112 112 27
Width: 594
Flags: W
LayerCount: 2
Fore
SplineSet
101 -235 m 1,0,-1
 101 478 l 1,1,-1
 166 478 l 1,2,-1
 175 405 l 1,3,4
 222 490 222 490 315.5 490 c 128,-1,5
 409 490 409 490 471.5 421 c 128,-1,6
 534 352 534 352 534 239 c 128,-1,7
 534 126 534 126 471 57.5 c 128,-1,8
 408 -11 408 -11 316 -11 c 128,-1,9
 224 -11 224 -11 180 58 c 1,10,-1
 180 -235 l 1,11,-1
 101 -235 l 1,0,-1
180 194 m 2,12,13
 180 131 180 131 218 95 c 128,-1,14
 256 59 256 59 312 59 c 128,-1,15
 368 59 368 59 410.5 107 c 128,-1,16
 453 155 453 155 453 238.5 c 128,-1,17
 453 322 453 322 412.5 371 c 128,-1,18
 372 420 372 420 314 420 c 128,-1,19
 256 420 256 420 219 383.5 c 128,-1,20
 182 347 182 347 180 285 c 1,21,-1
 180 194 l 2,12,13
EndSplineSet
Validated: 1
EndChar
StartChar: q
Encoding: 113 113 28
Width: 584
Flags: W
LayerCount: 2
Fore
SplineSet
51 239 m 128,-1,1
 51 352 51 352 113.5 421 c 128,-1,2
 176 490 176 490 264 490 c 0,3,4
 366 490 366 490 412 400 c 1,5,-1
 429 478 l 1,6,-1
 483 478 l 1,7,-1
 483 -235 l 1,8,-1
 405 -235 l 1,9,-1
 405 76 l 1,10,11
 364 -11 364 -11 270.5 -11 c 128,-1,12
 177 -11 177 -11 114 57.5 c 128,-1,0
 51 126 51 126 51 239 c 128,-1,1
132 238.5 m 128,-1,14
 132 155 132 155 175 107 c 128,-1,15
 218 59 218 59 275 59 c 0,16,17
 356 60 356 60 392 132 c 0,18,19
 404 156 404 156 405 187 c 1,20,-1
 405 278 l 2,21,22
 405 344 405 344 367 382 c 128,-1,23
 329 420 329 420 271 420 c 128,-1,24
 213 420 213 420 172.5 371 c 128,-1,13
 132 322 132 322 132 238.5 c 128,-1,14
EndSplineSet
Validated: 1
EndChar
StartChar: r
Encoding: 114 114 29
Width: 381
Flags: W
LayerCount: 2
Fore
SplineSet
100 0 m 1,0,-1
 100 479 l 1,1,-1
 179 479 l 1,2,-1
 179 387 l 1,3,4
 215 487 215 487 306 487 c 0,5,6
 335 487 335 487 361 478 c 1,7,-1
 357 401 l 1,8,9
 327 411 327 411 296 411 c 0,10,11
 183 411 183 411 179 233 c 1,12,-1
 179 0 l 1,13,-1
 100 0 l 1,0,-1
EndSplineSet
Validated: 1
EndChar
StartChar: braceleft
Encoding: 123 123 158
Width: 349
Flags: W
LayerCount: 2
Fore
SplineSet
75 267 m 1,0,-1
 75 343 l 1,1,-1
 92 343 l 2,2,3
 111 343 111 343 119.5 360.5 c 128,-1,4
 128 378 128 378 128 422 c 2,5,-1
 128 513 l 2,6,7
 128 680 128 680 242 730 c 0,8,9
 282 748 282 748 341 748 c 1,10,-1
 341 679 l 1,11,12
 267 679 267 679 236.5 636.5 c 128,-1,13
 206 594 206 594 206 512 c 2,14,-1
 206 420 l 2,15,16
 206 334 206 334 154 307 c 1,17,-1
 154 303 l 1,18,19
 206 278 206 278 206 190 c 2,20,-1
 206 97 l 2,21,22
 206 16 206 16 236.5 -26.5 c 128,-1,23
 267 -69 267 -69 341 -69 c 1,24,-1
 341 -138 l 1,25,26
 128 -138 128 -138 128 96 c 2,27,-1
 128 188 l 2,28,29
 128 231 128 231 119.5 249 c 128,-1,30
 111 267 111 267 92 267 c 2,31,-1
 75 267 l 1,0,-1
EndSplineSet
Validated: 1
EndChar
StartChar: asciitilde
Encoding: 126 126 160
Width: 515
Flags: W
LayerCount: 2
Fore
SplineSet
53 246 m 1,0,1
 86 357 86 357 160 357 c 0,2,3
 194 357 194 357 261 329.5 c 128,-1,4
 328 302 328 302 354 302 c 0,5,6
 394 302 394 302 419 359 c 1,7,-1
 462 332 l 1,8,9
 427 226 427 226 349 226 c 0,10,11
 326 226 326 226 278 244 c 128,-1,12
 230 262 230 262 216 268 c 0,13,14
 178 282 178 282 158 282 c 0,15,16
 121 282 121 282 97 223 c 1,17,-1
 53 246 l 1,0,1
EndSplineSet
Validated: 1
EndChar
StartChar: sterling
Encoding: 275 163 95
Width: 565
Flags: W
LayerCount: 2
Fore
SplineSet
20 0 m 1,0,-1
 20 69 l 1,1,-1
 48 69 l 2,2,3
 86 69 86 69 103.5 91 c 128,-1,4
 121 113 121 113 121 159 c 2,5,-1
 121 267 l 1,6,-1
 30 267 l 1,7,-1
 30 323 l 1,8,-1
 121 323 l 1,9,-1
 121 432 l 2,10,11
 121 531 121 531 167.5 585.5 c 128,-1,12
 214 640 214 640 305 640 c 0,13,14
 376 640 376 640 421 602 c 128,-1,15
 466 564 466 564 477 490 c 1,16,-1
 400 490 l 1,17,18
 384 568 384 568 298 568 c 0,19,20
 256 568 256 568 227.5 536 c 128,-1,21
 199 504 199 504 199 432 c 2,22,-1
 199 323 l 1,23,-1
 381 323 l 1,24,-1
 381 267 l 1,25,-1
 199 267 l 1,26,-1
 199 163 l 2,27,28
 199 95 199 95 162 69 c 1,29,-1
 345 69 l 2,30,31
 394 69 394 69 416.5 89.5 c 128,-1,32
 439 110 439 110 445 154 c 1,33,-1
 529 154 l 1,34,35
 523 77 523 77 481 38.5 c 128,-1,36
 439 0 439 0 345 0 c 2,37,-1
 20 0 l 1,0,-1
EndSplineSet
Validated: 1
EndChar
StartChar: brokenbar
Encoding: 631 166 550
Width: 279
Flags: W
LayerCount: 2
Fore
SplineSet
179 377 m 1,0,-1
 100 377 l 1,1,-1
 100 629 l 1,2,-1
 179 629 l 1,3,-1
 179 377 l 1,0,-1
179 229 m 1,4,-1
 179 0 l 1,5,-1
 100 0 l 1,6,-1
 100 229 l 1,7,-1
 179 229 l 1,4,-1
EndSplineSet
Validated: 1
EndChar
StartChar: paragraph
Encoding: 593 182 512
Width: 469
Flags: W
LayerCount: 2
Fore
SplineSet
50 504 m 128,-1,1
 50 567 50 567 92 602 c 128,-1,2
 134 637 134 637 211 637 c 0,3,4
 266 637 l 1,5,-1
 266 369 l 1,6,7
 211 369 l 0,8,9
 128 369 128 369 89 405 c 128,-1,0
 50 441 50 441 50 504 c 128,-1,1
211 577 m 257,10,-1
 211 637 l 257,11,-1
 419 637 l 257,12,-1
 419 577 l 257,13,-1
 211 577 l 257,10,-1
340 0 m 1,14,-1
 340 637 l 1,15,-1
 419 637 l 1,16,-1
 419 0 l 1,17,-1
 340 0 l 1,14,-1
211 0 m 1,18,-1
 211 637 l 1,19,-1
 290 637 l 1,20,-1
 290 0 l 1,21,-1
 211 0 l 1,18,-1
EndSplineSet
Validated: 5
EndChar
StartChar: periodcentered
Encoding: 590 183 509
Width: 231
Flags: W
LayerCount: 2
Fore
SplineSet
56 321.5 m 128,-1,1
 56 345 56 345 72.5 361.5 c 128,-1,2
 89 378 89 378 114.5 378 c 128,-1,3
 140 378 140 378 157 361.5 c 128,-1,4
 174 345 174 345 174 321.5 c 128,-1,5
 174 298 174 298 157 281.5 c 128,-1,6
 140 265 140 265 114.5 265 c 128,-1,7
 89 265 89 265 72.5 281.5 c 128,-1,0
 56 298 56 298 56 321.5 c 128,-1,1
EndSplineSet
Validated: 1
EndChar
StartChar: Acircumflex
Encoding: 300 194 121
Width: 575
Flags: W
LayerCount: 2
Fore
SplineSet
26 0 m 1,0,-1
 242 629 l 1,1,-1
 338 629 l 1,2,-1
 549 0 l 1,3,-1
 467 0 l 1,4,-1
 413 160 l 1,5,-1
 163 160 l 1,6,-1
 109 0 l 1,7,-1
 26 0 l 1,0,-1
110 716 m 1,8,-1
 290 872 l 1,9,-1
 469 716 l 1,10,-1
 419 677 l 1,11,-1
 290 785 l 1,12,-1
 160 677 l 1,13,-1
 110 716 l 1,8,-1
184 222 m 1,14,-1
 393 222 l 1,15,-1
 289 532 l 1,16,-1
 184 222 l 1,14,-1
EndSplineSet
Validated: 1
EndChar
StartChar: Atilde
Encoding: 325 195 164
Width: 575
Flags: W
LayerCount: 2
Fore
SplineSet
26 0 m 1,0,-1
 242 629 l 1,1,-1
 338 629 l 1,2,-1
 549 0 l 1,3,-1
 467 0 l 1,4,-1
 413 160 l 1,5,-1
 163 160 l 1,6,-1
 109 0 l 1,7,-1
 26 0 l 1,0,-1
132 738 m 1,8,9
 144 789 144 789 167 815.5 c 128,-1,10
 190 842 190 842 216 842 c 128,-1,11
 242 842 242 842 276 825 c 0,12,13
 322 802 322 802 335.5 796 c 128,-1,14
 349 790 349 790 362 790 c 128,-1,15
 375 790 375 790 389 802.5 c 128,-1,16
 403 815 403 815 413 842 c 1,17,-1
 448 819 l 1,18,19
 437 771 437 771 412.5 745 c 128,-1,20
 388 719 388 719 367.5 719 c 128,-1,21
 347 719 347 719 330 725 c 128,-1,22
 313 731 313 731 283 746.5 c 128,-1,23
 253 762 253 762 242.5 766 c 128,-1,24
 232 770 232 770 221 770 c 0,25,26
 189 770 189 770 164 719 c 1,27,-1
 132 738 l 1,8,9
184 222 m 1,28,-1
 393 222 l 1,29,-1
 289 532 l 1,30,-1
 184 222 l 1,28,-1
EndSplineSet
Validated: 1
EndChar
StartChar: Ucircumflex
Encoding: 304 219 125
Width: 654
Flags: W
LayerCount: 2
Fore
SplineSet
87 227 m 2,0,-1
 87 629 l 1,1,-1
 166 629 l 1,2,-1
 166 227 l 2,3,4
 166 139 166 139 210 100 c 128,-1,5
 254 61 254 61 326 61 c 128,-1,6
 398 61 398 61 442 100 c 128,-1,7
 486 139 486 139 486 227 c 2,8,-1
 486 629 l 1,9,-1
 565 629 l 1,10,-1
 565 227 l 2,11,12
 565 109 565 109 500 49 c 128,-1,13
 435 -11 435 -11 325.5 -11 c 128,-1,14
 216 -11 216 -11 151.5 49 c 128,-1,15
 87 109 87 109 87 227 c 2,0,-1
146 716 m 1,16,-1
 326 872 l 1,17,-1
 505 716 l 1,18,-1
 455 677 l 1,19,-1
 326 785 l 1,20,-1
 196 677 l 1,21,-1
 146 716 l 1,16,-1
EndSplineSet
Validated: 1
EndChar
StartChar: Thorn
Encoding: 530 222 369
Width: 554
VWidth: 0
Flags: W
LayerCount: 2
Fore
SplineSet
99 0 m 257,0,-1
 99 629 l 257,1,-1
 178 629 l 257,2,-1
 178 510 l 257,3,-1
 302 510 l 2,4,5
 405 510 405 510 460 458.5 c 128,-1,6
 515 407 515 407 515 316 c 0,7,8
 515 226 515 226 460 175 c 128,-1,9
 405 124 405 124 302 124 c 258,10,-1
 178 124 l 257,11,-1
 178 0 l 257,12,-1
 99 0 l 257,0,-1
178 192 m 257,13,-1
 302 192 l 2,14,15
 366 192 366 192 400 224.5 c 128,-1,16
 434 257 434 257 434 315 c 0,17,18
 434 374 434 374 400 408 c 128,-1,19
 366 442 366 442 302 442 c 258,20,-1
 178 442 l 257,21,-1
 178 192 l 257,13,-1
EndSplineSet
Validated: 1
EndChar
StartChar: germandbls
Encoding: 359 223 198
Width: 613
VWidth: 0
Flags: W
LayerCount: 2
Fore
SplineSet
101 0 m 257,0,-1
 101 470 l 2,1,2
 101 563 101 563 154.5 618.5 c 128,-1,3
 208 674 208 674 301 674 c 256,4,5
 381 674 381 674 430.5 632 c 128,-1,6
 480 590 480 590 480 535 c 0,7,8
 480 501 480 501 459 471 c 128,-1,9
 438 441 438 441 416.5 417 c 128,-1,10
 395 393 395 393 395 374 c 0,11,12
 395 357 395 357 421.5 332.5 c 128,-1,13
 448 308 448 308 479 285 c 128,-1,14
 510 262 510 262 536.5 223.5 c 128,-1,15
 563 185 563 185 563 142 c 0,16,17
 563 77 563 77 517 33 c 128,-1,18
 471 -11 471 -11 400 -11 c 0,19,20
 348 -11 348 -11 295 14 c 257,21,-1
 295 75 l 1,22,23
 345 52 345 52 391 52 c 0,24,25
 431 52 431 52 455 74 c 128,-1,26
 479 96 479 96 479 135 c 0,27,28
 479 164 479 164 462 189.5 c 128,-1,29
 445 215 445 215 421 233.5 c 128,-1,30
 397 252 397 252 373 270 c 128,-1,31
 349 288 349 288 332 309.5 c 128,-1,32
 315 331 315 331 315 354 c 0,33,34
 315 389 315 389 355.5 438 c 128,-1,35
 396 487 396 487 396 526 c 0,36,37
 396 564 396 564 369.5 589 c 128,-1,38
 343 614 343 614 296 614 c 0,39,40
 243 614 243 614 211.5 579.5 c 128,-1,41
 180 545 180 545 180 470 c 258,42,-1
 180 0 l 257,43,-1
 101 0 l 257,0,-1
EndSplineSet
Validated: 1
EndChar
StartChar: agrave
Encoding: 277 224 98
Width: 551
Flags: W
LayerCount: 2
Fore
SplineSet
60 139 m 128,-1,1
 60 203 60 203 111.5 239 c 128,-1,2
 163 275 163 275 240 275 c 128,-1,3
 317 275 317 275 387 249 c 1,4,-1
 387 310 l 2,5,6
 387 375 387 375 360 403 c 128,-1,7
 333 431 333 431 281.5 431 c 128,-1,8
 230 431 230 431 198.5 410.5 c 128,-1,9
 167 390 167 390 167 346 c 1,10,-1
 80 346 l 1,11,12
 80 456 80 456 198 482 c 0,13,14
 234 490 234 490 276 490 c 0,15,16
 364 490 364 490 414.5 445 c 128,-1,17
 465 400 465 400 465 308 c 2,18,-1
 465 0 l 1,19,-1
 397 0 l 1,20,-1
 389 80 l 1,21,22
 345 -11 345 -11 230 -11 c 0,23,24
 153 -11 153 -11 106.5 32 c 128,-1,0
 60 75 60 75 60 139 c 128,-1,1
144 140 m 0,25,26
 144 50 144 50 246 50 c 0,27,28
 304 50 304 50 345.5 91.5 c 128,-1,29
 387 133 387 133 387 199 c 1,30,31
 316 219 316 219 263 219 c 128,-1,32
 210 219 210 219 177 200 c 128,-1,33
 144 181 144 181 144 140 c 0,25,26
149 661 m 1,34,-1
 182 731 l 1,35,-1
 417 598 l 1,36,-1
 394 548 l 1,37,-1
 149 661 l 1,34,-1
EndSplineSet
Validated: 1
EndChar
StartChar: atilde
Encoding: 322 227 161
Width: 551
Flags: W
LayerCount: 2
Fore
SplineSet
60 139 m 128,-1,1
 60 203 60 203 111.5 239 c 128,-1,2
 163 275 163 275 240 275 c 128,-1,3
 317 275 317 275 387 249 c 1,4,-1
 387 310 l 2,5,6
 387 375 387 375 360 403 c 128,-1,7
 333 431 333 431 281.5 431 c 128,-1,8
 230 431 230 431 198.5 410.5 c 128,-1,9
 167 390 167 390 167 346 c 1,10,-1
 80 346 l 1,11,12
 80 456 80 456 198 482 c 0,13,14
 234 490 234 490 276 490 c 0,15,16
 364 490 364 490 414.5 445 c 128,-1,17
 465 400 465 400 465 308 c 2,18,-1
 465 0 l 1,19,-1
 397 0 l 1,20,-1
 389 80 l 1,21,22
 345 -11 345 -11 230 -11 c 0,23,24
 153 -11 153 -11 106.5 32 c 128,-1,0
 60 75 60 75 60 139 c 128,-1,1
124 609 m 1,25,26
 136 660 136 660 159 686.5 c 128,-1,27
 182 713 182 713 208 713 c 128,-1,28
 234 713 234 713 268 696 c 0,29,30
 314 673 314 673 327.5 667 c 128,-1,31
 341 661 341 661 354 661 c 128,-1,32
 367 661 367 661 381 673.5 c 128,-1,33
 395 686 395 686 405 713 c 1,34,-1
 440 690 l 1,35,36
 429 642 429 642 404.5 616 c 128,-1,37
 380 590 380 590 359.5 590 c 128,-1,38
 339 590 339 590 322 596 c 128,-1,39
 305 602 305 602 275 617.5 c 128,-1,40
 245 633 245 633 234.5 637 c 128,-1,41
 224 641 224 641 213 641 c 0,42,43
 181 641 181 641 156 590 c 1,44,-1
 124 609 l 1,25,26
144 140 m 0,45,46
 144 50 144 50 246 50 c 0,47,48
 303 50 303 50 344 90 c 128,-1,49
 385 130 385 130 387 193 c 1,50,-1
 387 199 l 1,51,52
 316 219 316 219 263 219 c 128,-1,53
 210 219 210 219 177 200 c 128,-1,54
 144 181 144 181 144 140 c 0,45,46
EndSplineSet
Validated: 1
EndChar
StartChar: ecircumflex
Encoding: 297 234 118
Width: 514
Flags: W
LayerCount: 2
Fore
SplineSet
134 282 m 1,0,-1
 389 282 l 1,1,2
 389 284 389 284 389 285 c 0,3,4
 389 383 389 383 328 415 c 0,5,6
 306 427 306 427 272 427 c 0,7,8
 210 427 210 427 175 385.5 c 128,-1,9
 140 344 140 344 134 282 c 1,0,-1
83 592 m 1,10,-1
 263 748 l 1,11,-1
 442 592 l 1,12,-1
 392 553 l 1,13,-1
 263 661 l 1,14,-1
 133 553 l 1,15,-1
 83 592 l 1,10,-1
54 240 m 128,-1,17
 54 354 54 354 114.5 422 c 128,-1,18
 175 490 175 490 275.5 490 c 128,-1,19
 376 490 376 490 426 412 c 0,20,21
 463 354 463 354 463 276 c 0,22,23
 463 248 463 248 460 222 c 1,24,-1
 133 222 l 1,25,26
 133 148 133 148 169 100.5 c 128,-1,27
 205 53 205 53 270 53 c 0,28,29
 369 53 369 53 383 140 c 1,30,-1
 464 140 l 1,31,32
 453 68 453 68 400.5 28.5 c 128,-1,33
 348 -11 348 -11 270 -11 c 0,34,35
 174 -11 174 -11 114 57.5 c 128,-1,16
 54 126 54 126 54 240 c 128,-1,17
EndSplineSet
Validated: 1
EndChar
StartChar: edieresis
Encoding: 308 235 131
Width: 514
Flags: W
LayerCount: 2
Fore
SplineSet
51 240 m 128,-1,1
 51 354 51 354 111.5 422 c 128,-1,2
 172 490 172 490 272 490 c 128,-1,3
 372 490 372 490 422 412 c 0,4,5
 460 352 460 352 460 272 c 0,6,7
 460 248 460 248 457 222 c 1,8,-1
 130 222 l 1,9,10
 130 148 130 148 166 100.5 c 128,-1,11
 202 53 202 53 267 53 c 0,12,13
 366 53 366 53 380 140 c 1,14,-1
 461 140 l 1,15,16
 450 68 450 68 397.5 28.5 c 128,-1,17
 345 -11 345 -11 267 -11 c 0,18,19
 171 -11 171 -11 111 57.5 c 128,-1,0
 51 126 51 126 51 240 c 128,-1,1
123 655 m 128,-1,21
 123 676 123 676 137.5 690.5 c 128,-1,22
 152 705 152 705 175 705 c 128,-1,23
 198 705 198 705 213.5 690.5 c 128,-1,24
 229 676 229 676 229 655 c 128,-1,25
 229 634 229 634 213.5 619.5 c 128,-1,26
 198 605 198 605 175 605 c 128,-1,27
 152 605 152 605 137.5 619.5 c 128,-1,20
 123 634 123 634 123 655 c 128,-1,21
131 282 m 1,28,-1
 386 282 l 1,29,30
 386 382 386 382 324 415 c 0,31,32
 302 427 302 427 270 427 c 0,33,34
 208 427 208 427 172.5 385.5 c 128,-1,35
 137 344 137 344 131 282 c 1,28,-1
291 655 m 128,-1,37
 291 676 291 676 306 690.5 c 128,-1,38
 321 705 321 705 343.5 705 c 128,-1,39
 366 705 366 705 381.5 690.5 c 128,-1,40
 397 676 397 676 397 655 c 128,-1,41
 397 634 397 634 381.5 619.5 c 128,-1,42
 366 605 366 605 343.5 605 c 128,-1,43
 321 605 321 605 306 619.5 c 128,-1,36
 291 634 291 634 291 655 c 128,-1,37
EndSplineSet
Validated: 1
EndChar
StartChar: ograve
Encoding: 279 242 100
Width: 547
Flags: W
LayerCount: 2
Fore
SplineSet
51 239 m 0,0,1
 51 360 51 360 112.5 425 c 128,-1,2
 174 490 174 490 274 490 c 128,-1,3
 374 490 374 490 435.5 425 c 128,-1,4
 497 360 497 360 497 239 c 0,5,6
 497 119 497 119 435.5 54 c 128,-1,7
 374 -11 374 -11 274 -11 c 128,-1,8
 174 -11 174 -11 112.5 54 c 128,-1,9
 51 119 51 119 51 239 c 0,0,1
132 239.5 m 128,-1,11
 132 154 132 154 167 105.5 c 128,-1,12
 202 57 202 57 271.5 57 c 128,-1,13
 341 57 341 57 379 105.5 c 128,-1,14
 417 154 417 154 417 239.5 c 128,-1,15
 417 325 417 325 381 373.5 c 128,-1,16
 345 422 345 422 275.5 422 c 128,-1,17
 206 422 206 422 169 373.5 c 128,-1,10
 132 325 132 325 132 239.5 c 128,-1,11
141 661 m 1,18,-1
 174 731 l 1,19,-1
 409 598 l 1,20,-1
 386 548 l 1,21,-1
 141 661 l 1,18,-1
EndSplineSet
Validated: 1
EndChar
StartChar: otilde
Encoding: 324 245 163
Width: 547
Flags: W
LayerCount: 2
Fore
SplineSet
51 239 m 0,0,1
 51 360 51 360 112.5 425 c 128,-1,2
 174 490 174 490 274 490 c 128,-1,3
 374 490 374 490 435.5 425 c 128,-1,4
 497 360 497 360 497 239 c 0,5,6
 497 119 497 119 435.5 54 c 128,-1,7
 374 -11 374 -11 274 -11 c 128,-1,8
 174 -11 174 -11 112.5 54 c 128,-1,9
 51 119 51 119 51 239 c 0,0,1
117 609 m 1,10,11
 129 660 129 660 152 686.5 c 128,-1,12
 175 713 175 713 201 713 c 0,13,14
 226 713 226 713 260 696 c 0,15,16
 306 673 306 673 320 667 c 128,-1,17
 334 661 334 661 347 661 c 128,-1,18
 360 661 360 661 374 673.5 c 128,-1,19
 388 686 388 686 398 713 c 1,20,-1
 433 690 l 1,21,22
 422 642 422 642 397.5 616 c 128,-1,23
 373 590 373 590 352.5 590 c 128,-1,24
 332 590 332 590 315 596 c 128,-1,25
 298 602 298 602 268 617.5 c 128,-1,26
 238 633 238 633 227.5 637 c 128,-1,27
 217 641 217 641 206 641 c 0,28,29
 174 641 174 641 149 590 c 1,30,-1
 117 609 l 1,10,11
132 239.5 m 128,-1,32
 132 154 132 154 167 105.5 c 128,-1,33
 202 57 202 57 271.5 57 c 128,-1,34
 341 57 341 57 379 105.5 c 128,-1,35
 417 154 417 154 417 239.5 c 128,-1,36
 417 325 417 325 381 373.5 c 128,-1,37
 345 422 345 422 275.5 422 c 128,-1,38
 206 422 206 422 169 373.5 c 128,-1,31
 132 325 132 325 132 239.5 c 128,-1,32
EndSplineSet
Validated: 1
EndChar
StartChar: divide
Encoding: 596 247 515
Width: 591
Flags: W
LayerCount: 2
Fore
SplineSet
50 212 m 1,0,-1
 50 279 l 1,1,-1
 541 279 l 1,2,-1
 541 212 l 1,3,-1
 50 212 l 1,0,-1
240 79.5 m 128,-1,5
 240 103 240 103 256.5 119.5 c 128,-1,6
 273 136 273 136 298.5 136 c 128,-1,7
 324 136 324 136 341 119.5 c 128,-1,8
 358 103 358 103 358 79.5 c 128,-1,9
 358 56 358 56 341 39.5 c 128,-1,10
 324 23 324 23 298.5 23 c 128,-1,11
 273 23 273 23 256.5 39.5 c 128,-1,4
 240 56 240 56 240 79.5 c 128,-1,5
240 405.5 m 128,-1,13
 240 429 240 429 256.5 445.5 c 128,-1,14
 273 462 273 462 298.5 462 c 128,-1,15
 324 462 324 462 341 445.5 c 128,-1,16
 358 429 358 429 358 405.5 c 128,-1,17
 358 382 358 382 341 365.5 c 128,-1,18
 324 349 324 349 298.5 349 c 128,-1,19
 273 349 273 349 256.5 365.5 c 128,-1,12
 240 382 240 382 240 405.5 c 128,-1,13
EndSplineSet
Validated: 1
EndChar
StartChar: ugrave
Encoding: 282 249 103
Width: 606
Flags: W
LayerCount: 2
Fore
SplineSet
87 175 m 2,0,-1
 87 479 l 1,1,-1
 166 479 l 1,2,-1
 166 181 l 2,3,4
 166 60 166 60 278 60 c 0,5,6
 343 60 343 60 383.5 110 c 128,-1,7
 424 160 424 160 426 238 c 1,8,-1
 426 479 l 1,9,-1
 505 479 l 1,10,-1
 505 0 l 1,11,-1
 426 0 l 1,12,-1
 426 95 l 1,13,14
 377 -9 377 -9 267 -9 c 0,15,16
 186 -9 186 -9 136.5 36 c 128,-1,17
 87 81 87 81 87 175 c 2,0,-1
167 699 m 1,18,-1
 200 769 l 1,19,-1
 435 636 l 1,20,-1
 412 586 l 1,21,-1
 167 699 l 1,18,-1
EndSplineSet
Validated: 1
EndChar
StartChar: Lslash
Encoding: 452 321 291
Width: 498
Flags: W
LayerCount: 2
Fore
SplineSet
28 269 m 1,0,-1
 313 476 l 1,1,-1
 350 419 l 1,2,-1
 66 212 l 1,3,-1
 28 269 l 1,0,-1
131 0 m 1,4,-1
 131 629 l 1,5,-1
 210 629 l 1,6,-1
 210 69 l 1,7,-1
 490 69 l 1,8,-1
 490 0 l 1,9,-1
 131 0 l 1,4,-1
EndSplineSet
Validated: 5
EndChar
StartChar: longs
Encoding: 573 383 492
Width: 343
Flags: W
LayerCount: 2
Fore
SplineSet
49 424 m 1,0,-1
 49 478 l 1,1,-1
 128 478 l 1,2,-1
 128 551 l 2,3,4
 128 622 128 622 167 655.5 c 128,-1,5
 206 689 206 689 257 689 c 128,-1,6
 308 689 308 689 347 676 c 1,7,-1
 333 614 l 1,8,9
 301 627 301 627 281 627 c 0,10,11
 246 627 246 627 226 610 c 128,-1,12
 206 593 206 593 206 550 c 2,13,-1
 206 0 l 1,14,-1
 128 0 l 1,15,-1
 128 424 l 1,16,-1
 49 424 l 1,0,-1
EndSplineSet
Validated: 1
EndChar
StartChar: uni01DD
Encoding: 451 477 290
Width: 515
Flags: W
LayerCount: 2
Fore
SplineSet
51 337 m 1,0,1
 62 409 62 409 114.5 448.5 c 128,-1,2
 167 488 167 488 245 488 c 0,3,4
 341 488 341 488 401 419.5 c 128,-1,5
 461 351 461 351 461 237 c 128,-1,6
 461 123 461 123 400.5 55 c 128,-1,7
 340 -13 340 -13 240 -13 c 0,8,9
 139 -13 139 -13 90 65 c 0,10,11
 52 125 52 125 52 205 c 0,12,13
 52 229 52 229 55 255 c 1,14,-1
 382 255 l 1,15,16
 382 329 382 329 346 376.5 c 128,-1,17
 310 424 310 424 245 424 c 0,18,19
 146 424 146 424 132 337 c 1,20,-1
 51 337 l 1,0,1
126 195 m 1,21,22
 126 95 126 95 188 62 c 0,23,24
 210 50 210 50 242 50 c 0,25,26
 304 50 304 50 339.5 91.5 c 128,-1,27
 375 133 375 133 381 195 c 1,28,-1
 126 195 l 1,21,22
EndSplineSet
Validated: 1
EndChar
StartChar: uni0237
Encoding: 456 567 295
Width: 314
Flags: W
LayerCount: 2
Fore
SplineSet
-86 -209 m 1,0,-1
 -82 -140 l 1,1,2
 -19 -177 -19 -177 33 -177 c 0,3,4
 121 -177 121 -177 121 -67 c 2,5,-1
 121 480 l 1,6,-1
 200 480 l 1,7,-1
 200 -67 l 2,8,9
 200 -204 200 -204 110 -236 c 0,10,11
 82 -246 82 -246 48 -246 c 0,12,13
 -14 -246 -14 -246 -86 -209 c 1,0,-1
EndSplineSet
Validated: 1
EndChar
StartChar: ogonek
Encoding: 460 731 299
Width: 614
VWidth: 2000
Flags: W
LayerCount: 2
Fore
SplineSet
216 -96 m 0,0,1
 216 -56 216 -56 262 -13 c 0,2,3
 275 0 275 0 291 10 c 1,4,-1
 334 3 l 1,5,6
 279 -32 279 -32 279 -79 c 0,7,8
 279 -82 279 -82 279 -82 c 0,9,10
 278 -98 278 -98 290 -110 c 0,11,12
 303 -123 303 -123 321 -123 c 0,13,14
 342 -123 342 -123 369 -105 c 1,15,-1
 386 -152 l 1,16,17
 356 -179 356 -179 310 -179 c 0,18,19
 216 -178 216 -178 216 -96 c 0,0,1
EndSplineSet
Validated: 1
EndChar
StartChar: acutecomb
Encoding: 576 769 495
Width: 0
Flags: W
LayerCount: 2
Fore
SplineSet
-391 600 m 1,0,-1
 -156 733 l 1,1,-1
 -124 663 l 1,2,-1
 -368 550 l 1,3,-1
 -391 600 l 1,0,-1
EndSplineSet
Validated: 1
EndChar
StartChar: uni0302
Encoding: 577 770 496
Width: 0
Flags: W
LayerCount: 2
Fore
SplineSet
-453 587 m 1,0,-1
 -273 743 l 1,1,-1
 -94 587 l 1,2,-1
 -144 548 l 1,3,-1
 -273 656 l 1,4,-1
 -403 548 l 1,5,-1
 -453 587 l 1,0,-1
EndSplineSet
Validated: 1
EndChar
StartChar: tildecomb
Encoding: 578 771 497
Width: 0
Flags: W
LayerCount: 2
Fore
SplineSet
-430 608 m 1,0,1
 -418 659 -418 659 -395 686 c 0,2,3
 -373 712 -373 712 -348 712 c 0,4,5
 -347 712 -347 712 -346 712 c 0,6,7
 -322 712 -322 712 -286 695 c 0,8,9
 -240 673 -240 673 -226.5 667 c 128,-1,10
 -213 661 -213 661 -200 661 c 128,-1,11
 -187 661 -187 661 -173 673 c 128,-1,12
 -159 685 -159 685 -149 712 c 1,13,-1
 -114 689 l 1,14,15
 -125 641 -125 641 -149.5 615 c 128,-1,16
 -174 589 -174 589 -194.5 589 c 128,-1,17
 -215 589 -215 589 -232 595 c 128,-1,18
 -249 601 -249 601 -279 617 c 128,-1,19
 -309 633 -309 633 -319.5 637 c 128,-1,20
 -330 641 -330 641 -341 640 c 0,21,22
 -373 637 -373 637 -398 589 c 1,23,-1
 -430 608 l 1,0,1
EndSplineSet
Validated: 1
EndChar
StartChar: uni0304
Encoding: 579 772 498
Width: 0
Flags: W
LayerCount: 2
Fore
SplineSet
-405 550 m 1,0,-1
 -405 624 l 1,1,-1
 -72 624 l 1,2,-1
 -72 550 l 1,3,-1
 -405 550 l 1,0,-1
EndSplineSet
Validated: 1
EndChar
StartChar: uni0305
Encoding: 580 773 499
Width: 0
Flags: W
LayerCount: 2
Fore
SplineSet
-455 550 m 1,0,-1
 -455 624 l 1,1,-1
 -22 624 l 1,2,-1
 -22 550 l 1,3,-1
 -455 550 l 1,0,-1
EndSplineSet
Validated: 1
EndChar
StartChar: uni0306
Encoding: 581 774 500
Width: 0
Flags: W
LayerCount: 2
Fore
SplineSet
-390 685 m 1,0,-1
 -323 685 l 1,1,2
 -315 619 -315 619 -239 619 c 0,3,4
 -199 619 -199 619 -179.5 636 c 128,-1,5
 -160 653 -160 653 -157 685 c 1,6,-1
 -89 685 l 1,7,8
 -99 550 -99 550 -241 550 c 0,9,10
 -277 550 -277 550 -307.5 559.5 c 128,-1,11
 -338 569 -338 569 -364 601 c 128,-1,12
 -390 633 -390 633 -390 685 c 1,0,-1
EndSplineSet
Validated: 1
EndChar
StartChar: uni0312
Encoding: 583 786 502
Width: 0
Flags: W
LayerCount: 2
Fore
SplineSet
-157 727 m 1,0,1
 -220 697 -220 697 -232 652 c 1,2,3
 -210 650 -210 650 -195 637 c 128,-1,4
 -180 624 -180 624 -180 602 c 128,-1,5
 -180 580 -180 580 -195 565 c 128,-1,6
 -210 550 -210 550 -239 550 c 128,-1,7
 -268 550 -268 550 -287 572.5 c 128,-1,8
 -306 595 -306 595 -306 629 c 128,-1,9
 -306 663 -306 663 -284 698.5 c 128,-1,10
 -262 734 -262 734 -216 756 c 1,11,-1
 -157 727 l 1,0,1
EndSplineSet
Validated: 1
EndChar
StartChar: uni0314
Encoding: 587 788 506
Width: 0
Flags: W
LayerCount: 2
Fore
SplineSet
-157 589 m 1,0,1
 -216 560 l 1,2,3
 -262 582 -262 582 -284 617.5 c 128,-1,4
 -306 653 -306 653 -306 687 c 128,-1,5
 -306 721 -306 721 -287 743.5 c 128,-1,6
 -268 766 -268 766 -239 766 c 128,-1,7
 -210 766 -210 766 -195 751 c 128,-1,8
 -180 736 -180 736 -180 714 c 128,-1,9
 -180 692 -180 692 -195 679 c 128,-1,10
 -210 666 -210 666 -232 664 c 1,11,12
 -220 619 -220 619 -157 589 c 1,0,1
EndSplineSet
Validated: 1
EndChar
StartChar: afii10018
Encoding: 177 1041 378
Width: 622
Flags: W
HStem: 0 69<180 428.47> 280 68<180 423.934> 561 68<180 465>
VStem: 101 79<69 280 348 561> 469 84<109.097 239.155>
LayerCount: 2
Fore
SplineSet
101 0 m 1,0,-1
 101 629 l 1,1,-1
 465 629 l 1,2,-1
 465 561 l 1,3,-1
 180 561 l 1,4,-1
 180 348 l 1,5,-1
 334 348 l 2,6,7
 367 348 367 348 402 339.5 c 128,-1,8
 437 331 437 331 472.5 312 c 128,-1,9
 508 293 508 293 530.5 256.5 c 128,-1,10
 553 220 553 220 553 172 c 0,11,12
 553 55 553 55 440 15 c 0,13,14
 398 0 398 0 337 0 c 2,15,-1
 101 0 l 1,0,-1
180 69 m 1,16,-1
 335 69 l 2,17,18
 407 69 407 69 438 98 c 128,-1,19
 469 127 469 127 469 175 c 256,20,21
 469 223 469 223 435 251.5 c 128,-1,22
 401 280 401 280 335 280 c 2,23,-1
 180 280 l 1,24,-1
 180 69 l 1,16,-1
EndSplineSet
Validated: 1
EndChar
StartChar: afii10037
Encoding: 195 1059 396
Width: 612
Flags: W
HStem: 0 69<124.91 254.254>
LayerCount: 2
Fore
SplineSet
290 146 m 1,0,1
 258 69 258 69 202.5 69 c 128,-1,2
 147 69 147 69 98 107 c 1,3,-1
 98 35 l 1,4,5
 160 0 160 0 217.5 0 c 128,-1,6
 275 0 275 0 309 35.5 c 128,-1,7
 343 71 343 71 373 151 c 26,8,-1
 553 629 l 1,9,-1
 458 629 l 1,10,-1
 322 246 l 1,11,-1
 142 629 l 1,12,-1
 47 629 l 1,13,-1
 290 146 l 1,0,1
290 146 m 1025,14,15
EndSplineSet
EndChar
StartChar: afii10038
Encoding: 196 1060 397
Width: 751
Flags: W
HStem: 0 21G<336 415> 54 58<225.23 336 415 525.77> 518 57<225.23 336 415 525.77> 609 20G<336 415>
VStem: 50 82<205.22 422.202> 336 79<0 54.29 111.988 517.802 574.71 629> 619 82<205.22 422.202>
LayerCount: 2
Fore
SplineSet
50 313.5 m 128,-1,1
 50 441 50 441 125.5 508 c 128,-1,2
 201 575 201 575 323 575 c 0,3,4
 330 575 330 575 336 575 c 1,5,-1
 336 629 l 1,6,-1
 415 629 l 1,7,-1
 415 575 l 1,8,9
 421 575 421 575 428 575 c 0,10,11
 550 575 550 575 625.5 508 c 128,-1,12
 701 441 701 441 701 313.5 c 128,-1,13
 701 186 701 186 626 120 c 128,-1,14
 551 54 551 54 428 54 c 0,15,16
 421 54 421 54 415 54 c 1,17,-1
 415 0 l 1,18,-1
 336 0 l 1,19,-1
 336 54 l 1,20,21
 330 54 330 54 323 54 c 0,22,23
 200 54 200 54 125 120 c 128,-1,0
 50 186 50 186 50 313.5 c 128,-1,1
132 313 m 128,-1,25
 132 214 132 214 183.5 163 c 128,-1,26
 235 112 235 112 323 112 c 0,27,28
 330 112 330 112 336 112 c 1,29,-1
 336 518 l 1,30,31
 330 518 330 518 323 518 c 0,32,33
 235 518 235 518 183.5 465 c 128,-1,24
 132 412 132 412 132 313 c 128,-1,25
415 112 m 1,34,35
 421 112 421 112 428 112 c 0,36,37
 516 112 516 112 567.5 163 c 128,-1,38
 619 214 619 214 619 313 c 128,-1,39
 619 412 619 412 567.5 465 c 128,-1,40
 516 518 516 518 428 518 c 0,41,42
 421 518 421 518 415 518 c 1,43,-1
 415 112 l 1,34,35
EndSplineSet
Validated: 1
Substitution2: "'locl' Localized Forms in Cyrillic lookup 1-1" afii10038.loclBGR
EndChar
StartChar: afii10040
Encoding: 198 1062 399
Width: 669
Flags: W
HStem: 0 68<180 489> 609 20G<101 180 489 568>
VStem: 101 79<68 629> 489 79<68 629> 568 79<-140 0>
LayerCount: 2
Fore
SplineSet
101 0 m 1,0,-1
 101 629 l 1,1,-1
 180 629 l 1,2,-1
 180 68 l 1,3,-1
 489 68 l 1,4,-1
 489 629 l 1,5,-1
 568 629 l 1,6,-1
 568 68 l 1,7,-1
 647 68 l 1,8,-1
 647 -160 l 5,9,-1
 568 -160 l 5,10,-1
 568 0 l 1,11,-1
 101 0 l 1,0,-1
EndSplineSet
Validated: 8388609
EndChar
StartChar: afii10042
Encoding: 200 1064 401
Width: 916
Flags: W
HStem: 0 68<180 411 490 731> 609 20G<101 180 411 490 731 810>
VStem: 101 79<68 629> 411 79<68 629> 731 79<68 629>
LayerCount: 2
Fore
SplineSet
101 0 m 1,0,-1
 101 629 l 1,1,-1
 180 629 l 1,2,-1
 180 68 l 1,3,-1
 411 68 l 1,4,-1
 411 629 l 1,5,-1
 490 629 l 1,6,-1
 490 68 l 1,7,-1
 731 68 l 1,8,-1
 731 629 l 1,9,-1
 810 629 l 1,10,-1
 810 0 l 1,11,-1
 101 0 l 1,0,-1
EndSplineSet
Validated: 1
EndChar
StartChar: afii10047
Encoding: 205 1069 406
Width: 613
Flags: W
HStem: -11 71<204.581 382.785> 273 68<240 479.021> 569 71<216.775 377.796>
VStem: 51 85<125.223 204> 479 87<176.778 273 341 454.375>
LayerCount: 2
Fore
SplineSet
51 204 m 1,0,-1
 136 204 l 1,1,2
 136 139 136 139 179.5 99.5 c 128,-1,3
 223 60 223 60 298 60 c 0,4,5
 388 60 388 60 434 131 c 0,6,7
 471 187 471 187 479 273 c 1,8,-1
 240 273 l 1,9,-1
 240 341 l 1,10,-1
 481 341 l 1,11,12
 477 443 477 443 429 503 c 0,13,14
 377 569 377 569 298 569 c 0,15,16
 241 569 241 569 198.5 534.5 c 128,-1,17
 156 500 156 500 136 441 c 1,18,-1
 51 458 l 1,19,20
 74 539 74 539 135.5 589.5 c 128,-1,21
 197 640 197 640 298 640 c 0,22,23
 416 640 416 640 491 555.5 c 128,-1,24
 566 471 566 471 566 320 c 128,-1,25
 566 169 566 169 493.5 79 c 128,-1,26
 421 -11 421 -11 303.5 -11 c 128,-1,27
 186 -11 186 -11 118.5 47 c 128,-1,28
 51 105 51 105 51 204 c 1,0,-1
EndSplineSet
Validated: 1
EndChar
StartChar: afii10048
Encoding: 206 1070 407
Width: 879
Flags: W
HStem: -11 72<423.962 602.16> 0 21G<101 180> 284 68<180 241.703> 569 71<425.007 600.834> 609 20G<101 180>
VStem: 101 79<0 284 352 629> 242 81<176.525 284 352 449.082> 704 82<177.9 449.128>
LayerCount: 2
Fore
SplineSet
101 0 m 1,0,-1
 101 629 l 1,1,-1
 180 629 l 1,2,-1
 180 352 l 1,3,-1
 242 352 l 1,4,5
 250 482 250 482 316 556 c 0,6,7
 391 640 391 640 513 640 c 128,-1,8
 635 640 635 640 710.5 556.5 c 128,-1,9
 786 473 786 473 786 313.5 c 128,-1,10
 786 154 786 154 711 71.5 c 128,-1,11
 636 -11 636 -11 513 -11 c 0,12,13
 512 -11 512 -11 510 -11 c 0,14,15
 389 -11 389 -11 316 72 c 0,16,17
 249 147 249 147 242 284 c 1,18,-1
 180 284 l 1,19,-1
 180 0 l 1,20,-1
 101 0 l 1,0,-1
323 313 m 128,-1,22
 323 189 323 189 374 125 c 128,-1,23
 425 61 425 61 513 61 c 128,-1,24
 601 61 601 61 652.5 125 c 128,-1,25
 704 189 704 189 704 313 c 128,-1,26
 704 437 704 437 652.5 503 c 128,-1,27
 601 569 601 569 513 569 c 128,-1,28
 425 569 425 569 374 503 c 128,-1,21
 323 437 323 437 323 313 c 128,-1,22
EndSplineSet
Validated: 8388609
EndChar
StartChar: afii10067
Encoding: 210 1074 411
Width: 523
Flags: W
HStem: 0 59<129 372.25> 229 56<129 317.831> 422 68<129 349.149>
VStem: 50 79<59 229 285 422> 357 88<322.019 409.518> 402 81<87.3598 198.512>
LayerCount: 2
Fore
SplineSet
50 0 m 1,0,-1
 50 479 l 1,1,-1
 266 479 l 2,2,3
 268 479 268 479 270 479 c 0,4,5
 330 479 330 479 372 448 c 0,6,7
 415 416 415 416 415 360 c 0,8,9
 415 320 415 320 399.5 292.5 c 128,-1,10
 384 265 384 265 354 258 c 1,11,12
 411 243 411 243 432 215 c 0,13,14
 453 186 453 186 453 130 c 0,15,16
 452 60 452 60 406 30 c 0,17,18
 358 0 358 0 266 0 c 2,19,-1
 50 0 l 1,0,-1
129 59 m 1,20,-1
 258 59 l 2,21,22
 314 59 314 59 342 72 c 0,23,24
 372 85 372 85 372 130 c 0,25,26
 372 180 372 180 342 199 c 0,27,28
 313 218 313 218 258 218 c 2,29,-1
 129 218 l 1,30,-1
 129 59 l 1,20,-1
129 274 m 1,31,-1
 240 274 l 2,32,33
 295 274 295 274 311 289.5 c 128,-1,34
 327 305 327 305 327 346 c 0,35,36
 327 380 327 380 306 394 c 0,37,38
 282 411 282 411 240 411 c 2,39,-1
 129 411 l 1,40,-1
 129 274 l 1,31,-1
EndSplineSet
Validated: 8388609
Substitution2: "'locl' Localized Forms in Cyrillic lookup 1-1" afii10067.loclBGR
EndChar
StartChar: afii10078
Encoding: 220 1084 421
Width: 656
Flags: W
HStem: 0 21G<50 139 275.709 379.342 517 606> 458 20G<50 199.403 455.597 606>
VStem: 50 89<0 395> 517 89<0 395>
LayerCount: 2
Fore
SplineSet
50 0 m 1,0,-1
 50 478 l 1,1,-1
 192 478 l 1,2,-1
 328 112 l 1,3,-1
 463 478 l 1,4,-1
 606 478 l 1,5,-1
 606 0 l 1,6,-1
 517 0 l 1,7,-1
 517 395 l 1,8,-1
 372 0 l 1,9,-1
 283 0 l 1,10,-1
 139 395 l 1,11,-1
 139 0 l 1,12,-1
 50 0 l 1,0,-1
EndSplineSet
Validated: 1
EndChar
StartChar: afii10079
Encoding: 221 1085 422
Width: 519
Flags: W
HStem: 0 21G<50 129 390 469> 227 68<129 390> 459 20G<50 129 390 469>
VStem: 50 79<0 227 295 479> 390 79<0 227 295 479>
LayerCount: 2
Fore
SplineSet
50 0 m 1,0,-1
 50 479 l 1,1,-1
 129 479 l 1,2,-1
 129 295 l 1,3,-1
 390 295 l 1,4,-1
 390 479 l 1,5,-1
 469 479 l 1,6,-1
 469 0 l 1,7,-1
 390 0 l 1,8,-1
 390 227 l 1,9,-1
 129 227 l 1,10,-1
 129 0 l 1,11,-1
 50 0 l 1,0,-1
EndSplineSet
Validated: 1
EndChar
StartChar: afii10086
Encoding: 228 1092 429
Width: 791
Flags: W
HStem: -11 68<187.216 342.679 448.321 603.784> 422 68<184.354 339.724 451.276 606.646> 661 20G<356 435>
VStem: 40 80<132.406 349.702> 356 79<-200 6.32812 73.707 403.984 472.672 681> 671 80<132.406 349.702>
LayerCount: 2
Fore
SplineSet
40 239 m 0,0,1
 40 360 40 360 101.5 425 c 128,-1,2
 163 490 163 490 263 490 c 0,3,4
 315 490 315 490 356 473 c 1,5,-1
 356 681 l 1,6,-1
 435 681 l 1,7,-1
 435 473 l 1,8,9
 476 490 476 490 528 490 c 0,10,11
 628 490 628 490 689.5 425 c 128,-1,12
 751 360 751 360 751 239 c 0,13,14
 751 119 751 119 689.5 54 c 128,-1,15
 628 -11 628 -11 528 -11 c 0,16,17
 476 -11 476 -11 435 6 c 1,18,-1
 435 -200 l 1,19,-1
 356 -200 l 1,20,-1
 356 6 l 1,21,22
 315 -11 315 -11 263 -11 c 0,23,24
 163 -11 163 -11 101.5 54 c 128,-1,25
 40 119 40 119 40 239 c 0,0,1
120 239.5 m 128,-1,27
 120 154 120 154 158 105.5 c 128,-1,28
 196 57 196 57 266 57 c 0,29,30
 323 57 323 57 356 89 c 1,31,-1
 356 387 l 1,32,33
 320 422 320 422 262 422 c 0,34,35
 193 422 193 422 156.5 373.5 c 128,-1,26
 120 325 120 325 120 239.5 c 128,-1,27
435 89 m 1,36,37
 470 57 470 57 526 57 c 0,38,39
 595 57 595 57 633 105.5 c 128,-1,40
 671 154 671 154 671 240 c 128,-1,42
 671 326 671 326 635 374 c 128,-1,44
 599 422 599 422 530 422 c 0,45,46
 471 422 471 422 435 387 c 1,47,-1
 435 89 l 1,36,37
EndSplineSet
Validated: 1
Substitution2: "'locl' Localized Forms in Cyrillic lookup 1-1" afii10086.loclBGR
EndChar
StartChar: afii10088
Encoding: 230 1094 431
Width: 555
Flags: W
HStem: 0 68<129 389> 459 20G<50 129 389 468>
VStem: 50 79<68 479> 389 79<68 479> 433 72<-82 0>
LayerCount: 2
Fore
SplineSet
50 0 m 1,0,-1
 50 479 l 1,1,-1
 129 479 l 1,2,-1
 129 68 l 1,3,-1
 369 68 l 5,4,-1
 369 479 l 5,5,-1
 448 479 l 5,6,-1
 448 68 l 5,7,-1
 535 68 l 5,8,-1
 535 -140 l 5,9,-1
 463 -140 l 5,10,-1
 463 0 l 5,11,-1
 50 0 l 1,0,-1
EndSplineSet
Validated: 8388609
Substitution2: "'locl' Localized Forms in Cyrillic lookup 1-1" afii10088.loclBGR
EndChar
StartChar: afii57407
Encoding: 356 1567 195
Width: 499
Flags: W
LayerCount: 2
Fore
SplineSet
453 476 m 1,0,1
 369 476 l 1,2,3
 352 568 352 568 235 568 c 0,4,5
 179 568 179 568 147.5 542.5 c 128,-1,6
 116 517 116 517 116 479 c 128,-1,7
 116 441 116 441 135 418.5 c 128,-1,8
 154 396 154 396 209 366 c 128,-1,9
 264 336 264 336 285 302.5 c 128,-1,10
 306 269 306 269 306 206 c 2,11,-1
 306 161 l 1,12,-1
 228 161 l 1,13,-1
 228 200 l 2,14,15
 228 246 228 246 209 272 c 0,16,17
 199 286 199 286 182 297 c 128,-1,18
 165 308 165 308 140 322 c 0,19,20
 82 354 82 354 56 388.5 c 128,-1,21
 30 423 30 423 30 475 c 0,22,23
 30 544 30 544 86.5 592 c 128,-1,24
 143 640 143 640 240.5 640 c 128,-1,25
 338 640 338 640 392 595 c 128,-1,26
 446 550 446 550 453 476 c 1,0,1
324 44.5 m 128,-1,28
 324 21 324 21 308 5 c 128,-1,29
 292 -11 292 -11 266 -11 c 128,-1,30
 240 -11 240 -11 223 5 c 128,-1,31
 206 21 206 21 206 44.5 c 128,-1,32
 206 68 206 68 223 85 c 128,-1,33
 240 102 240 102 266 102 c 128,-1,34
 292 102 292 102 308 85 c 128,-1,27
 324 68 324 68 324 44.5 c 128,-1,28
EndSplineSet
Validated: 1
EndChar
StartChar: uni201F
Encoding: 350 8223 189
Width: 379
Flags: W
LayerCount: 2
Fore
SplineSet
201 600.5 m 128,-1,1
 201 635 201 635 220.5 658 c 128,-1,2
 240 681 240 681 268 681 c 128,-1,3
 296 681 296 681 311.5 665.5 c 128,-1,4
 327 650 327 650 327 628 c 128,-1,5
 327 606 327 606 312 593 c 128,-1,6
 297 580 297 580 274 578 c 1,7,8
 287 534 287 534 349 502 c 1,9,-1
 293 473 l 1,10,11
 248 495 248 495 224.5 530.5 c 128,-1,0
 201 566 201 566 201 600.5 c 128,-1,1
36 600.5 m 128,-1,13
 36 635 36 635 55.5 658 c 128,-1,14
 75 681 75 681 103 681 c 128,-1,15
 131 681 131 681 146.5 665.5 c 128,-1,16
 162 650 162 650 162 628 c 128,-1,17
 162 606 162 606 147 593 c 128,-1,18
 132 580 132 580 109 578 c 1,19,20
 122 534 122 534 184 502 c 1,21,-1
 128 473 l 1,22,23
 83 495 83 495 59.5 530.5 c 128,-1,12
 36 566 36 566 36 600.5 c 128,-1,13
EndSplineSet
Validated: 1
EndChar
StartChar: uni203D
Encoding: 357 8253 196
Width: 499
Flags: W
LayerCount: 2
Fore
SplineSet
30 476 m 1,0,1
 37 550 37 550 91 595 c 128,-1,2
 145 640 145 640 242.5 640 c 128,-1,3
 340 640 340 640 396.5 592 c 128,-1,4
 453 544 453 544 453 475 c 0,5,6
 453 423 453 423 427 388.5 c 128,-1,7
 401 354 401 354 343 322 c 0,8,9
 318 308 318 308 301 297 c 128,-1,10
 284 286 284 286 274 272 c 0,11,12
 255 246 255 246 255 200 c 2,13,-1
 255 161 l 1,14,-1
 253 161 l 1,15,-1
 177 161 l 1,16,-1
 167 499 l 1,17,-1
 262 499 l 1,18,19
 260 428 260 428 258 356 c 1,20,21
 266 361 266 361 274 366 c 0,22,23
 329 396 329 396 348 418.5 c 128,-1,24
 367 441 367 441 367 479 c 128,-1,25
 367 517 367 517 335.5 542.5 c 128,-1,26
 304 568 304 568 248 568 c 0,27,28
 131 568 131 568 114 476 c 1,29,-1
 30 476 l 1,0,1
159 44.5 m 128,-1,31
 159 68 159 68 175 85 c 128,-1,32
 191 102 191 102 217 102 c 128,-1,33
 243 102 243 102 260 85 c 128,-1,34
 277 68 277 68 277 44.5 c 128,-1,35
 277 21 277 21 260 5 c 128,-1,36
 243 -11 243 -11 217 -11 c 128,-1,37
 191 -11 191 -11 175 5 c 128,-1,30
 159 21 159 21 159 44.5 c 128,-1,31
EndSplineSet
Validated: 1
EndChar
StartChar: minus
Encoding: 264 8722 71
Width: 488
Flags: W
LayerCount: 2
Fore
SplineSet
79 258 m 1,0,-1
 79 325 l 1,1,-1
 409 325 l 1,2,-1
 409 258 l 1,3,-1
 79 258 l 1,0,-1
EndSplineSet
Validated: 1
EndChar
StartChar: afii10068.loclBGR
Encoding: 549 -1 452
Width: 485
Flags: W
HStem: -11 62<160.594 330.008> 428 62<158.743 319.076>
VStem: 40 86<82.8311 172.409> 57 77<363 403.215> 346 83<314.961 401.798> 369 76<87.0217 141>
LayerCount: 2
Fore
SplineSet
40 124 m 0,0,1
 40 175 40 175 72 204 c 128,-1,2
 104 233 104 233 166 253 c 2,3,-1
 262 285 l 2,4,5
 308 299 308 299 326 316 c 0,6,7
 346 333 346 333 346 358 c 128,-1,8
 346 383 346 383 320 406 c 0,9,10
 294 428 294 428 244 428 c 0,11,12
 143 428 143 428 134 363 c 1,13,-1
 57 363 l 1,14,15
 58 418 58 418 108 454 c 0,16,17
 156 490 156 490 242 490 c 128,-1,18
 328 490 328 490 378 455 c 0,19,20
 429 420 429 420 429 361 c 0,21,22
 429 269 429 269 304 231 c 2,23,-1
 211 200 l 2,24,25
 164 188 164 188 146 172 c 0,26,27
 126 155 126 155 126 126 c 0,28,29
 126 95 126 95 160 73 c 128,-1,30
 194 51 194 51 246 51 c 0,31,32
 300 51 300 51 332 74 c 0,33,34
 367 95 367 95 369 141 c 1,35,-1
 445 141 l 1,36,37
 442 74 442 74 389 32 c 0,38,39
 337 -11 337 -11 241 -11 c 0,40,41
 146 -11 146 -11 93 30 c 0,42,43
 40 72 40 72 40 124 c 0,0,1
EndSplineSet
Validated: 8388609
EndChar
StartChar: afii10076.loclBGR
Encoding: 555 -1 458
Width: 491
Flags: W
HStem: 0 21G<50 129 368.901 481> 458 20G<50 129 336.062 470>
VStem: 50 79<0 201 285 478>
LayerCount: 2
Fore
SplineSet
50 681 m 1,0,-1
 129 681 l 1,1,-1
 129 290 l 1,2,-1
 319 479 l 5,3,-1
 429 479 l 1,4,-1
 240 297 l 1,5,-1
 461 0 l 1,6,-1
 364 0 l 1,7,-1
 183 251 l 1,8,-1
 129 201 l 1,9,-1
 129 0 l 1,10,-1
 50 0 l 1,11,-1
 50 681 l 1,0,-1
EndSplineSet
Validated: 1
EndChar
StartChar: afii10086.loclBGR
Encoding: 559 -1 462
Width: 731
Flags: W
HStem: -11 68<157.216 312.679 418.321 573.784> 422 68<154.354 309.724 421.276 576.646> 661 20G<326 405>
VStem: 10 80<132.406 349.702> 326 79<-200 6.32812 73.707 403.984 472.672 681> 641 80<132.406 349.702>
LayerCount: 2
Fore
SplineSet
30 239 m 0,0,1
 30 360 30 360 91.5 425 c 128,-1,2
 153 490 153 490 253 490 c 0,3,4
 278 490 278 490 326 483 c 1,5,-1
 326 681 l 1,6,-1
 405 681 l 1,7,-1
 405 483 l 1,8,9
 452 490 452 490 478 490 c 0,10,11
 578 490 578 490 639.5 425 c 128,-1,12
 701 360 701 360 701 239 c 0,13,14
 701 119 701 119 639.5 54 c 128,-1,15
 578 -11 578 -11 478 -11 c 0,16,17
 442 -11 442 -11 405 -4 c 1,18,-1
 405 -200 l 1,19,-1
 326 -200 l 1,20,-1
 326 -4 l 1,21,22
 289 -11 289 -11 253 -11 c 0,23,24
 153 -11 153 -11 91.5 54 c 128,-1,25
 30 119 30 119 30 239 c 0,0,1
110 239.5 m 128,-1,27
 110 154 110 154 148 105.5 c 128,-1,28
 186 57 186 57 256 57 c 0,29,30
 284 57 284 57 326 69 c 1,31,-1
 326 417 l 1,32,33
 285 422 285 422 244 422 c 0,34,35
 183 422 183 422 146.5 373.5 c 128,-1,26
 110 325 110 325 110 239.5 c 128,-1,27
405 69 m 1,36,37
 447 57 447 57 476 57 c 0,38,39
 545 57 545 57 583 105.5 c 128,-1,40
 621 154 621 154 621 240 c 128,-1,41
 621 326 621 326 585 373 c 128,-1,42
 549 420 549 420 488 420 c 0,43,44
 448 420 448 420 405 417 c 1,45,-1
 405 69 l 1,36,37
EndSplineSet
Validated: 1
EndChar
StartChar: afii10088.loclBGR
Encoding: 560 -1 463
Width: 562
Flags: W
HStem: -9 69<165.848 305.325> 459 20G<50 128 378 456>
VStem: 50 78<98.6973 479> 378 78<141.665 479> 470 72<-139 0>
LayerCount: 2
Fore
SplineSet
50 175 m 2,0,-1
 50 479 l 1,1,-1
 128 479 l 1,2,-1
 128 181 l 2,3,4
 128 60 128 60 240 60 c 0,5,6
 295 60 295 60 336.5 111 c 128,-1,7
 378 162 378 162 378 238 c 2,8,-1
 378 479 l 1,9,-1
 456 479 l 1,10,-1
 456 118 l 2,11,12
 456 68 456 68 542 68 c 1,13,-1
 542 -139 l 1,14,-1
 470 -139 l 1,15,-1
 470 0 l 1,16,17
 388 0 388 0 378 95 c 1,18,19
 324 -9 324 -9 229 -9 c 0,20,21
 148 -9 148 -9 98 34 c 0,22,23
 50 75 50 75 50 175 c 2,0,-1
EndSplineSet
Validated: 1
EndChar
StartChar: afii10091.loclBGR
Encoding: 563 -1 466
Width: 890
Flags: W
HStem: -11 70<175.735 317.513 504.021 639.67>
VStem: 50 78<108.869 479> 378 78<130.88 479> 706 78<78.5859 93 136 479> 798 72<-142 -3>
LayerCount: 2
Fore
SplineSet
50 198 m 2,0,-1
 50 479 l 1,1,-1
 128 479 l 1,2,-1
 128 198 l 2,3,4
 128 129 128 129 160.5 94 c 128,-1,5
 193 59 193 59 252 59 c 128,-1,6
 311 59 311 59 344.5 109 c 128,-1,7
 378 159 378 159 378 247 c 2,8,-1
 378 479 l 1,9,-1
 456 479 l 1,10,-1
 456 198 l 2,11,12
 456 129 456 129 488.5 94 c 128,-1,13
 521 59 521 59 575.5 59 c 128,-1,14
 630 59 630 59 667 108 c 0,15,16
 706 160 706 160 706 244 c 2,17,-1
 706 479 l 1,18,-1
 708 479 l 1,19,-1
 781 479 l 1,20,-1
 784 479 l 1,21,-1
 784 115 l 2,22,23
 784 65 784 65 870 65 c 1,24,-1
 870 -142 l 1,25,-1
 798 -142 l 1,26,-1
 798 -3 l 1,27,28
 708 -3 708 -3 708 93 c 1,29,30
 661 -11 661 -11 558 -11 c 0,31,32
 496 -11 496 -11 454 19.5 c 128,-1,33
 412 50 412 50 393 104 c 1,34,35
 348 -11 348 -11 230 -11 c 0,36,37
 144 -11 144 -11 97 45 c 128,-1,38
 50 101 50 101 50 198 c 2,0,-1
EndSplineSet
Validated: 1
EndChar
StartChar: nine.propold
Encoding: 274 -1 92
Width: 580
Flags: W
LayerCount: 2
Fore
SplineSet
66 354 m 0,0,1
 66 441 66 441 125 496 c 128,-1,2
 184 551 184 551 286 551 c 0,3,4
 340 551 340 551 386 525.5 c 128,-1,5
 432 500 432 500 464 456 c 0,6,7
 530 366 530 366 530 216.5 c 128,-1,8
 530 67 530 67 465 -23.5 c 128,-1,9
 400 -114 400 -114 281 -114 c 0,10,11
 188 -114 188 -114 129 -58.5 c 128,-1,12
 70 -3 70 -3 70 83 c 1,13,-1
 153 83 l 1,14,15
 155 26 155 26 187.5 -8 c 128,-1,16
 220 -42 220 -42 272 -42 c 128,-1,17
 324 -42 324 -42 356 -22 c 0,18,19
 448 35 448 35 449 238 c 0,20,21
 449 283 449 283 444 318 c 1,22,23
 436 241 436 241 389 198.5 c 128,-1,24
 342 156 342 156 263.5 156 c 128,-1,25
 185 156 185 156 125.5 212 c 128,-1,26
 66 268 66 268 66 354 c 0,0,1
148 353.5 m 128,-1,28
 148 295 148 295 184 260.5 c 128,-1,29
 220 226 220 226 278.5 226 c 128,-1,30
 337 226 337 226 374 263 c 128,-1,31
 411 300 411 300 411 356 c 128,-1,32
 411 412 411 412 375 446.5 c 128,-1,33
 339 481 339 481 279 481 c 128,-1,34
 219 481 219 481 183.5 446.5 c 128,-1,27
 148 412 148 412 148 353.5 c 128,-1,28
EndSplineSet
Validated: 1
EndChar
StartChar: two.propold
Encoding: 267 -1 85
Width: 575
Flags: W
LayerCount: 2
Fore
SplineSet
64 0 m 1,0,-1
 64 84 l 2,1,2
 64 164 64 164 101 205.5 c 128,-1,3
 138 247 138 247 214 264 c 1,4,-1
 317 289 l 2,5,6
 370 301 370 301 395.5 325 c 128,-1,7
 421 349 421 349 421 388 c 128,-1,8
 421 427 421 427 389 454 c 128,-1,9
 357 481 357 481 299 481 c 128,-1,10
 241 481 241 481 204.5 458 c 128,-1,11
 168 435 168 435 162 388 c 1,12,-1
 75 388 l 1,13,14
 80 466 80 466 138 508.5 c 128,-1,15
 196 551 196 551 290.5 551 c 128,-1,16
 385 551 385 551 443 502.5 c 128,-1,17
 501 454 501 454 501 388 c 128,-1,18
 501 322 501 322 464 285.5 c 128,-1,19
 427 249 427 249 351 231 c 2,20,-1
 240 204 l 1,21,22
 143 182 143 182 143 105 c 2,23,-1
 143 73 l 1,24,-1
 500 73 l 1,25,-1
 500 0 l 1,26,-1
 64 0 l 1,0,-1
EndSplineSet
Validated: 1
EndChar
StartChar: zero.propold
Encoding: 265 -1 83
Width: 531
Flags: W
LayerCount: 2
Fore
SplineSet
51 270 m 128,-1,1
 51 406 51 406 109 478.5 c 128,-1,2
 167 551 167 551 265.5 551 c 128,-1,3
 364 551 364 551 422.5 478 c 128,-1,4
 481 405 481 405 481 270 c 128,-1,5
 481 135 481 135 422.5 62 c 128,-1,6
 364 -11 364 -11 265.5 -11 c 128,-1,7
 167 -11 167 -11 109 61.5 c 128,-1,0
 51 134 51 134 51 270 c 128,-1,1
132 270 m 0,8,9
 132 59 132 59 266 59 c 128,-1,10
 400 59 400 59 400 270 c 0,11,12
 400 482 400 482 266 482 c 128,-1,13
 132 482 132 482 132 270 c 0,8,9
EndSplineSet
Validated: 1
EndChar
